<svg width="50" height="50" viewBox="0 0 50 50" fill="none" xmlns="http://www.w3.org/2000/svg">
<rect y="29" width="21" height="21" rx="2" fill="url(#paint0_linear_1704_624)"/>
<rect x="29" width="21" height="21" rx="2" fill="url(#paint1_linear_1704_624)"/>
<path fill-rule="evenodd" clip-rule="evenodd" d="M31 29C29.8954 29 29 29.8954 29 31V48C29 49.1046 29.8954 50 31 50H48C49.1046 50 50 49.1046 50 48V31C50 29.8954 49.1046 29 48 29H31ZM31.8261 30.8261C31.2738 30.8261 30.8261 31.2738 30.8261 31.8261V47.1739C30.8261 47.7262 31.2738 48.1739 31.8261 48.1739H47.1739C47.7262 48.1739 48.1739 47.7262 48.1739 47.1739V31.8261C48.1739 31.2738 47.7262 30.8261 47.1739 30.8261H31.8261Z" fill="url(#paint2_linear_1704_624)"/>
<path fill-rule="evenodd" clip-rule="evenodd" d="M2 0C0.895431 0 0 0.89543 0 2V19C0 20.1046 0.89543 21 2 21H19C20.1046 21 21 20.1046 21 19V2C21 0.895431 20.1046 0 19 0H2ZM2.82609 1.82609C2.2738 1.82609 1.82609 2.2738 1.82609 2.82609V18.1739C1.82609 18.7262 2.2738 19.1739 2.82609 19.1739H18.1739C18.7262 19.1739 19.1739 18.7262 19.1739 18.1739V2.82609C19.1739 2.2738 18.7262 1.82609 18.1739 1.82609H2.82609Z" fill="url(#paint3_linear_1704_624)"/>
<defs>
<linearGradient id="paint0_linear_1704_624" x1="0" y1="29" x2="20.79" y2="50" gradientUnits="userSpaceOnUse">
<stop stop-color="#078DD8"/>
<stop offset="1" stop-color="#4EC8FE"/>
</linearGradient>
<linearGradient id="paint1_linear_1704_624" x1="29" y1="0" x2="49.79" y2="21" gradientUnits="userSpaceOnUse">
<stop stop-color="#078DD8"/>
<stop offset="1" stop-color="#4EC8FE"/>
</linearGradient>
<linearGradient id="paint2_linear_1704_624" x1="29" y1="29" x2="49.79" y2="50" gradientUnits="userSpaceOnUse">
<stop stop-color="#078DD8"/>
<stop offset="1" stop-color="#4EC8FE"/>
</linearGradient>
<linearGradient id="paint3_linear_1704_624" x1="0" y1="0" x2="20.79" y2="21" gradientUnits="userSpaceOnUse">
<stop stop-color="#078DD8"/>
<stop offset="1" stop-color="#4EC8FE"/>
</linearGradient>
</defs>
</svg>
